# xmcd CD database file
#
# Track frame offsets:
#	150
#	15980
#	29583
#	45218
#	64431
#	82577
#	99731
#	115426
#	125243
#	141783
#	155586
#	172699
#	184581
#	195974
#	211531
#	225756
#	243339
#	257508
#	265810
#	279518
#	292334
#
# Disc length: 4051 seconds
#
# Revision: 0
# Processed by: cddbd v1.5.2PL0 Copyright (c) Steve Scherf et al.
# Submitted via: CDex 1.70beta2
#
DISCID=160fd115
DTITLE=Various Artist - CDX Volume 1025 Christmas 2008
DYEAR=2008
DGENRE=Country
TTITLE0=Rascal Flatts - I'll Be Home For Christmas
TTITLE1=Rascal Flatts - Jingle Bell Rock
TTITLE2=Rascal Flatts - White Christmas
TTITLE3=Carrie Underwood - Do You Hear What I Hear
TTITLE4=Carrie Underwood - O Holy Night
TTITLE5=Vince Vance and The Valiants - All I Want For Christmas Is You
TTITLE6=Vince Vance and The Valiants - Christmas Just Ain't Christmas Without You
TTITLE7=Tracy Lawrence -  All Wrapped Up In Christmas
TTITLE8=Ray Stevens - Nightmare Before Christmas
TTITLE9=Jame House with Jose Feliciano - Santa Goes To Mexico
TTITLE10=James House - On This Christmas NIght
TTITLE11=The Greezinslaws -  Lighten Up It's Christmas
TTITLE12=The Greezinslaws - Randolf, The Brown Nosed Reindeer
TTITLE13=Johnny Lyon - A Soldier's Christmas Tree
TTITLE14=B.J. Blue - Blues For Christmas
TTITLE15=Joseph James - Christmas I My Hometown
TTITLE16=Alli Gillis - Holiday Medley Of Winder Wonderland, Silver Bells, and O Holy NIght
TTITLE17=Mo Kekko - Take Jesus Shopping (That Christmas Song)
TTITLE18=Praisestreet Kids (featuring Celeste Kellogg) - We're Looking Forward To Christmas
TTITLE19=Lizard Thom Case - What Christmas Is About
TTITLE20=The Ramski's (Mindy and Melissa) - Winter Wonderland
EXTD=YEAR: 2008
EXTT0=
EXTT1=
EXTT2=
EXTT3=
EXTT4=
EXTT5=
EXTT6=
EXTT7=
EXTT8=
EXTT9=
EXTT10=
EXTT11=
EXTT12=
EXTT13=
EXTT14=
EXTT15=
EXTT16=
EXTT17=
EXTT18=
EXTT19=
EXTT20=
PLAYORDER=
